<svg width="24" height="24" viewBox="0 0 24 24" fill="none" xmlns="http://www.w3.org/2000/svg">
<path d="M22 5C22 6.3 21.2 7.4 20 7.8C19.7 7.9 19.4 8 19 8C17.4 8 16 6.7 16 5C16 4.7 16.1 4.3 16.2 4C16.6 2.8 17.7 2 19 2C20.7 2 22 3.3 22 5Z" fill="white"/>
<path fill-rule="evenodd" clip-rule="evenodd" d="M15.1555 4H6C3.8 4 2 5.8 2 8V18C2 20.2 3.8 22 6 22H16C18.2 22 20 20.2 20 18V8.84969C19.7334 8.92752 19.4005 9 19 9C16.8695 9 15 7.27383 15 5C15 4.66552 15.0736 4.30051 15.1555 4ZM15.2573 9.57133C15.4941 9.7134 15.5709 10.0205 15.4288 10.2573L12.4288 15.2573C12.3431 15.4001 12.192 15.4908 12.0258 15.4994C11.8595 15.508 11.6999 15.4333 11.6 15.3001L9.00003 11.8334L6.40003 15.3001C6.23434 15.521 5.92094 15.5658 5.70003 15.4001C5.47912 15.2344 5.43434 14.921 5.60003 14.7001L8.60003 10.7001C8.69446 10.5742 8.84265 10.5001 9.00003 10.5001C9.15741 10.5001 9.3056 10.5742 9.40003 10.7001L11.9539 14.1052L14.5713 9.74283C14.7134 9.50604 15.0205 9.42926 15.2573 9.57133Z" fill="white"/>
</svg>
