<svg width="24" height="24" viewBox="0 0 24 24" fill="none" xmlns="http://www.w3.org/2000/svg">
<path fill-rule="evenodd" clip-rule="evenodd" d="M6 22H18C20.3 22 22 20.2 22 18V6C22 3.8 20.2 2 18 2H6C3.8 2 2 3.8 2 6V18C2 20.2 3.8 22 6 22ZM7.5 13C7.5 12.7239 7.27614 12.5 7 12.5C6.72386 12.5 6.5 12.7239 6.5 13V17C6.5 17.2761 6.72386 17.5 7 17.5C7.27614 17.5 7.5 17.2761 7.5 17V13ZM12 6.5C12.2761 6.5 12.5 6.72386 12.5 7V17C12.5 17.2761 12.2761 17.5 12 17.5C11.7239 17.5 11.5 17.2761 11.5 17V7C11.5 6.72386 11.7239 6.5 12 6.5ZM17.5 10C17.5 9.72386 17.2761 9.5 17 9.5C16.7239 9.5 16.5 9.72386 16.5 10V17C16.5 17.2761 16.7239 17.5 17 17.5C17.2761 17.5 17.5 17.2761 17.5 17V10Z" fill="#33164E"/>
</svg>
