<svg width="21" height="21" viewBox="0 0 21 21" fill="none" xmlns="http://www.w3.org/2000/svg">
<path fill-rule="evenodd" clip-rule="evenodd" d="M14 8C14 11.3137 11.3137 14 8 14C4.68629 14 2 11.3137 2 8C2 4.68629 4.68629 2 8 2C11.3137 2 14 4.68629 14 8ZM13.9994 13.2924C15.2445 11.882 16 10.0292 16 8C16 3.58172 12.4183 0 8 0C3.58172 0 0 3.58172 0 8C0 12.4183 3.58172 16 8 16C10.0292 16 11.8819 15.2445 13.2923 13.9995L19.6464 20.3537C19.8417 20.5489 20.1583 20.5489 20.3536 20.3537C20.5488 20.1584 20.5488 19.8418 20.3536 19.6466L13.9994 13.2924Z" fill="#33164E"/>
</svg>
