<svg width="22" height="20" viewBox="0 0 22 20" fill="none" xmlns="http://www.w3.org/2000/svg">
<path d="M11.8999 0.800098L14.2999 5.00009C14.5999 5.50009 15.0999 5.80009 15.5999 6.00009L20.2999 7.00009C21.0999 7.20009 21.3999 8.10009 20.7999 8.70009L17.5999 12.3001C17.1999 12.7001 16.9999 13.3001 17.0999 13.9001L17.5999 18.7001C17.6999 19.5001 16.8999 20.0001 16.1999 19.7001L11.7999 17.7001C11.2999 17.5001 10.6999 17.5001 10.1999 17.7001L5.79995 19.7001C5.09995 20.0001 4.29995 19.4001 4.39995 18.7001L4.89995 13.9001C4.99995 13.3001 4.79995 12.8001 4.39995 12.3001L1.19995 8.70009C0.699947 8.10009 0.999947 7.20009 1.69995 7.00009L6.39995 6.00009C6.99995 5.90009 7.39995 5.50009 7.69995 5.00009L10.0999 0.800098C10.4999 0.200098 11.4999 0.200098 11.8999 0.800098Z" fill="#33164E"/>
</svg>
